<svg width="20" height="20" viewBox="0 0 20 20" fill="none" xmlns="http://www.w3.org/2000/svg">
    <path fill-rule="evenodd" clip-rule="evenodd" d="M14.5833 2.75H5.41667C3.94391 2.75 2.75 3.94391 2.75 5.41667V14.5833C2.75 16.0561 3.94391 17.25 5.41667 17.25H14.5833C16.0561 17.25 17.25 16.0561 17.25 14.5833V5.41667C17.25 3.94391 16.0561 2.75 14.5833 2.75ZM5.41667 1.25C3.11548 1.25 1.25 3.11548 1.25 5.41667V14.5833C1.25 16.8845 3.11548 18.75 5.41667 18.75H14.5833C16.8845 18.75 18.75 16.8845 18.75 14.5833V5.41667C18.75 3.11548 16.8845 1.25 14.5833 1.25H5.41667Z" fill="black" />
    <path fill-rule="evenodd" clip-rule="evenodd" d="M10 5.46875C9.67093 5.46875 9.40417 5.73551 9.40417 6.06458V9.40417H6.06458C5.73551 9.40417 5.46875 9.67093 5.46875 10C5.46875 10.3291 5.73551 10.5958 6.06458 10.5958H9.40417V13.9354C9.40417 14.2645 9.67093 14.5312 10 14.5312C10.3291 14.5312 10.5958 14.2645 10.5958 13.9354V10.5958H13.9354C14.2645 10.5958 14.5312 10.3291 14.5312 10C14.5312 9.67093 14.2645 9.40417 13.9354 9.40417H10.5958V6.06458C10.5958 5.73551 10.3291 5.46875 10 5.46875Z" fill="black" />
</svg>
