<svg width="28" height="29" viewBox="0 0 28 29" fill="none" xmlns="http://www.w3.org/2000/svg">
    <rect x="1.5" y="1.69995" width="25" height="25" rx="12.5" fill="#0094F5" />
    <path fill-rule="evenodd" clip-rule="evenodd" d="M14 8.19995C13.4477 8.19995 13 8.64767 13 9.19995V13.2H9C8.44772 13.2 8 13.6477 8 14.2C8 14.7522 8.44771 15.2 9 15.2H13V19.2C13 19.7522 13.4477 20.2 14 20.2C14.5523 20.2 15 19.7522 15 19.2V15.2H19C19.5523 15.2 20 14.7522 20 14.2C20 13.6477 19.5523 13.2 19 13.2H15V9.19995C15 8.64767 14.5523 8.19995 14 8.19995Z" fill="white" />
    <rect x="1.5" y="1.69995" width="25" height="25" rx="12.5" stroke="white" stroke-width="3" />
</svg>
