<svg width="24" height="25" viewBox="0 0 24 25" fill="none" xmlns="http://www.w3.org/2000/svg">
    <path d="M19.4228 3.3306H4.5356C3.95074 3.3306 3.47223 3.76159 3.47223 4.29427V22.9576C3.47223 23.4902 3.81782 23.6258 4.24849 23.253L11.5485 16.9479C11.7186 16.8026 12.0004 16.8026 12.1706 16.9431L19.7045 23.2675C20.1352 23.6307 20.4861 23.4902 20.4861 22.9576V4.29427C20.4861 3.76159 20.0129 3.3306 19.4228 3.3306ZM18.8911 20.6138L13.2499 15.8777C12.8565 15.5484 12.362 15.3838 11.8622 15.3838C11.3518 15.3838 10.8467 15.5533 10.4532 15.8922L5.06728 20.546V4.78337H18.8911V20.6138Z" fill="#333333" />
    <path fill-rule="evenodd" clip-rule="evenodd" d="M3.125 4.28411C3.125 3.53001 3.78962 2.98337 4.52178 2.98337H19.4366C20.1752 2.98337 20.8333 3.53103 20.8333 4.28411V22.9675C20.8333 23.2859 20.7261 23.6395 20.3931 23.7718C20.0793 23.8965 19.753 23.7434 19.5072 23.5363C19.5071 23.5363 19.5073 23.5364 19.5072 23.5363L11.9618 17.2072C11.9615 17.207 11.9613 17.2068 11.9611 17.2066C11.9126 17.1674 11.8089 17.1682 11.7616 17.2081C11.7614 17.2082 11.7613 17.2083 11.7611 17.2085L4.44928 23.5188C4.20693 23.7285 3.88204 23.8908 3.56613 23.7695C3.22892 23.6401 3.125 23.2819 3.125 22.9675V4.28411ZM4.52178 3.65543C4.08206 3.65543 3.78788 3.9717 3.78788 4.28411V22.9675C3.78788 23.0554 3.80082 23.1081 3.81138 23.135C3.81555 23.1339 3.82038 23.1325 3.82591 23.1306C3.86751 23.1166 3.93337 23.0816 4.019 23.0076L11.3329 16.6955L11.3343 16.6943C11.6278 16.4438 12.0875 16.4446 12.3801 16.6858L12.3822 16.6876L19.9307 23.0193C20.0154 23.0906 20.0806 23.1238 20.1219 23.1368C20.1308 23.1396 20.1379 23.1413 20.1434 23.1424C20.1548 23.1176 20.1705 23.0633 20.1705 22.9675V4.28411C20.1705 3.97067 19.8805 3.65543 19.4366 3.65543H4.52178ZM20.1593 23.1438C20.1593 23.1438 20.159 23.1438 20.1584 23.1439ZM3.79008 23.1382C3.79009 23.1382 3.79039 23.1382 3.79098 23.1383ZM4.72301 4.4377H19.2353V21.3353L13.0413 16.1392C13.0413 16.1392 13.0414 16.1393 13.0413 16.1392C12.7111 15.8632 12.2917 15.7216 11.862 15.7216C11.4214 15.7216 10.9935 15.8678 10.6649 16.1507L4.72301 21.2808V4.4377ZM5.38589 5.10977V19.8257L10.2359 15.6384C10.6956 15.2426 11.2798 15.0495 11.862 15.0495C12.4335 15.0495 13.0051 15.2377 13.4632 15.6208L13.4635 15.6211L18.5724 19.9069V5.10977H5.38589Z" fill="#333333" />
</svg>
