<svg width="24" height="25" viewBox="0 0 24 25" fill="none" xmlns="http://www.w3.org/2000/svg">
    <path fill-rule="evenodd" clip-rule="evenodd" d="M21.2948 22.0594L20.2165 18.0379C20.1546 17.8125 20.1856 17.5695 20.2916 17.3573C21.2329 15.4703 21.5467 13.2165 20.9678 10.8655C20.1811 7.68365 17.6975 5.12934 14.5245 4.28526C13.6584 4.05988 12.8055 3.9494 11.9791 3.9494C6.04846 3.9494 1.41711 9.51321 3.01687 15.7045C3.7593 18.5682 6.8174 21.5335 9.69432 22.2317C10.4721 22.4218 11.2366 22.5102 11.9791 22.5102C13.5744 22.5102 15.0681 22.0992 16.3806 21.3921C16.5264 21.3125 16.69 21.2684 16.849 21.2684C16.9286 21.2684 17.0081 21.2772 17.0877 21.2993L21.0031 22.3466C21.0252 22.3511 21.0473 22.3555 21.065 22.3555C21.2152 22.3555 21.3346 22.2141 21.2948 22.0594ZM18.9791 18.3693L19.589 20.6452L17.4191 20.0663C17.2335 20.0177 17.0435 19.9912 16.849 19.9912C16.4778 19.9912 16.1022 20.0884 15.7663 20.2696C14.5864 20.906 13.3137 21.2286 11.9791 21.2286C11.3206 21.2286 10.6533 21.1446 9.99483 20.9855C7.55983 20.3933 4.87736 17.7772 4.25867 15.3819C3.61346 12.8807 4.12167 10.3131 5.65073 8.33769C7.17978 6.3623 9.48662 5.23098 11.9791 5.23098C12.7127 5.23098 13.4595 5.3282 14.1975 5.52707C16.9242 6.25182 19.041 8.41724 19.726 11.1748C20.2077 13.1193 20.0088 15.0593 19.147 16.7873C18.8996 17.2822 18.8377 17.8435 18.9791 18.3693Z" fill="#333333" />
    <path fill-rule="evenodd" clip-rule="evenodd" d="M3.36131 15.6154C1.82106 9.65421 6.27606 4.30516 11.9791 4.30516C12.7734 4.30516 13.5958 4.4113 14.434 4.6293C17.4797 5.43986 19.8667 7.89389 20.6224 10.9509C21.1808 13.2187 20.8774 15.3859 19.9734 17.1982C19.8321 17.4809 19.7863 17.8134 19.8731 18.131C19.8732 18.1313 19.8733 18.1317 19.8734 18.1321L20.8971 21.95L17.1829 20.9565C17.1823 20.9563 17.1817 20.9562 17.1812 20.956C17.0663 20.9243 16.9547 20.9126 16.8491 20.9126C16.6259 20.9126 16.4046 20.9739 16.2111 21.0793C14.9477 21.7598 13.5119 22.1544 11.9791 22.1544C11.265 22.1544 10.5289 22.0694 9.77877 21.8861L9.77824 21.886C8.41707 21.5556 6.98759 20.6799 5.80354 19.5254C4.61937 18.3708 3.71202 16.968 3.36131 15.6154ZM11.9791 5.58673C9.59681 5.58673 7.39381 6.66701 5.93207 8.55545C4.4729 10.4406 3.98439 12.8941 4.60314 15.293C4.89146 16.4092 5.67247 17.6077 6.69419 18.6053C7.71552 19.6025 8.94061 20.3629 10.0787 20.6398C10.7117 20.7927 11.3508 20.8728 11.9791 20.8728C13.2544 20.8728 14.4691 20.565 15.5975 19.9565C15.9832 19.7484 16.4166 19.6354 16.8491 19.6354C17.0762 19.6354 17.2965 19.6664 17.5093 19.7222L17.5109 19.7226L19.086 20.1428L18.6356 18.4617C18.4707 17.8486 18.5439 17.1981 18.8289 16.6281C19.6511 14.9793 19.8429 13.1264 19.3807 11.2606C18.7266 8.62741 16.706 6.56194 14.1061 5.87088L14.105 5.87057C13.397 5.6798 12.6813 5.58673 11.9791 5.58673Z" fill="#333333" />
    <path fill-rule="evenodd" clip-rule="evenodd" d="M11.9791 3.59363C5.8209 3.59363 1.01322 9.37213 2.67243 15.7935C3.06418 17.3046 4.05714 18.8164 5.30681 20.0349C6.5565 21.2534 8.09431 22.2094 9.60989 22.5773C10.4154 22.7741 11.2082 22.8659 11.9791 22.8659C13.6365 22.8659 15.1879 22.4387 16.5494 21.7053L16.551 21.7044C16.649 21.651 16.7543 21.6241 16.8491 21.6241C16.902 21.6241 16.9489 21.63 16.9925 21.6421L20.9222 22.6933L20.9334 22.6955L20.9365 22.6961C20.9527 22.6995 21.009 22.7112 21.065 22.7112C21.4368 22.7112 21.7397 22.361 21.6394 21.9708L20.5601 17.9457L20.5596 17.9437C20.5231 17.8108 20.5393 17.6574 20.61 17.5161C21.5885 15.5546 21.9125 13.2141 21.3131 10.7801C20.4957 7.47368 17.9159 4.81926 14.616 3.94144L14.6141 3.94095C13.7203 3.70837 12.8373 3.59363 11.9791 3.59363ZM11.9791 4.30516C6.27606 4.30516 1.82106 9.65421 3.36131 15.6154C3.71202 16.968 4.61937 18.3708 5.80354 19.5254C6.98759 20.6799 8.41707 21.5556 9.77824 21.886L9.77877 21.8861C10.5289 22.0694 11.265 22.1544 11.9791 22.1544C13.5119 22.1544 14.9477 21.7598 16.2111 21.0793C16.4046 20.9739 16.6259 20.9126 16.8491 20.9126C16.9547 20.9126 17.0663 20.9243 17.1812 20.956L17.1829 20.9565L20.8971 21.95L19.8734 18.1321L19.8731 18.131C19.7863 17.8134 19.8321 17.4809 19.9734 17.1982C20.8774 15.3859 21.1808 13.2187 20.6224 10.9509C19.8667 7.89389 17.4797 5.43986 14.434 4.6293C13.5958 4.4113 12.7734 4.30516 11.9791 4.30516Z" fill="#333333" />
</svg>
