<svg width="20" height="20" viewBox="0 0 20 20" fill="none" xmlns="http://www.w3.org/2000/svg">
    <path fill-rule="evenodd" clip-rule="evenodd" d="M6.60845 3.48408C5.80389 3.48408 5.01055 3.71092 4.30777 4.14108C2.13269 5.47429 1.36723 8.45082 2.63061 10.7737C2.867 11.2087 3.29036 11.7312 3.83397 12.2971C4.37455 12.86 5.02162 13.4533 5.69317 14.0299C7.03612 15.1831 8.46516 16.2596 9.30952 16.8778L9.30975 16.878C9.51206 17.0264 9.74972 17.1041 9.99944 17.1041C10.2486 17.1041 10.4868 17.0267 10.6935 16.8773C11.538 16.259 12.9666 15.1828 14.3092 14.0299C14.9808 13.4533 15.6279 12.86 16.1684 12.2971C16.712 11.7312 17.1354 11.2088 17.3718 10.7738C18.6317 8.45075 17.8661 5.47413 15.691 4.14099C14.9882 3.71089 14.195 3.48408 13.3904 3.48408C12.185 3.48408 11.0504 3.97051 10.1973 4.8417L9.99944 5.0438L9.80156 4.8417C8.94853 3.97051 7.81391 3.48408 6.60845 3.48408ZM4.01767 3.67973C4.80482 3.19793 5.69819 2.94116 6.60845 2.94116C7.87617 2.94116 9.07108 3.41913 9.99944 4.2727C10.9278 3.41913 12.1227 2.94116 13.3904 2.94116C14.3007 2.94116 15.1941 3.19793 15.9812 3.67973C18.4164 5.17224 19.2462 8.46875 17.8568 11.0302C17.5855 11.5296 17.1218 12.0938 16.5679 12.6706C16.0109 13.2505 15.3497 13.8563 14.6705 14.4395C13.3121 15.6059 11.8702 16.6919 11.0208 17.3138L11.0196 17.3147C10.7204 17.5311 10.3685 17.647 9.99944 17.647C9.6307 17.647 9.27802 17.5313 8.98134 17.3136C8.13193 16.6917 6.69018 15.6058 5.33189 14.4395C4.65275 13.8563 3.99152 13.2505 3.43453 12.6706C2.8806 12.0938 2.4171 11.5298 2.14571 11.0304M4.01767 3.67973C1.58253 5.17223 0.752603 8.46889 2.14571 11.0304L4.01767 3.67973ZM4.57651 4.55708C5.1948 4.17905 5.89484 3.97748 6.60845 3.97748C7.86027 3.97748 9.0184 4.57494 9.79779 5.59895L9.79858 5.6L9.99945 5.86657L10.2003 5.6L10.2011 5.59895C10.9806 4.57482 12.1423 3.97748 13.3904 3.97748C14.1038 3.97748 14.8041 4.17894 15.4193 4.55731C17.3955 5.76755 18.0577 8.45332 16.9219 10.54C16.6675 11.0076 16.2034 11.5534 15.6501 12.1138C15.0925 12.6784 14.4278 13.2739 13.7561 13.8415C12.4125 14.977 11.0283 16.0116 10.3886 16.4811L10.3872 16.4821C10.1567 16.649 9.83863 16.649 9.6082 16.4821L9.60721 16.4814C8.96713 16.0134 7.58295 14.9797 6.23926 13.8441C5.56755 13.2764 4.90287 12.6807 4.34525 12.1157C3.79193 11.5549 3.32793 11.0085 3.07345 10.54M4.86664 5.0184C3.15301 6.07101 2.55073 8.43215 3.55825 10.2831C3.77467 10.6816 4.19362 11.1837 4.73954 11.7369C5.28125 12.2859 5.93234 12.8699 6.59725 13.4318C7.92634 14.555 9.29836 15.5798 9.93416 16.0447C9.97057 16.0708 10.0243 16.0709 10.0609 16.0449C10.697 15.5781 12.069 14.5524 13.3981 13.4292C14.0631 12.8673 14.7142 12.2835 15.2559 11.7349C15.8019 11.1821 16.2207 10.6808 16.4371 10.2832C17.4448 8.43187 16.8421 6.06746 15.1288 5.01847L15.1284 5.01817C14.598 4.69195 13.9982 4.52039 13.3904 4.52039C12.3266 4.52039 11.3239 5.02825 10.6415 5.92442C10.6414 5.9246 10.6413 5.92478 10.6411 5.92495L9.99944 6.77656L9.35775 5.92495C9.3576 5.92476 9.35746 5.92457 9.35731 5.92438C8.67489 5.02811 7.67564 4.52039 6.60845 4.52039C6.00091 4.52039 5.40087 4.69183 4.86664 5.0184ZM4.57651 4.55708L4.57604 4.55736L4.57651 4.55708ZM4.57604 4.55736C2.60018 5.77087 1.93757 8.45305 3.07345 10.54L4.57604 4.55736Z" fill="#333333" />
    <path d="M9.99947 17.3529C9.69096 17.3529 9.39647 17.2565 9.14756 17.074C7.45777 15.8379 3.41909 12.763 2.40591 10.9001C1.08072 8.46571 1.87654 5.33916 4.17634 3.93084C4.91957 3.47632 5.76096 3.23529 6.61638 3.23529C7.89599 3.23529 9.09848 3.75179 9.99947 4.67116C10.9005 3.75179 12.103 3.23529 13.3826 3.23529C14.238 3.23529 15.0794 3.47632 15.8226 3.93084C18.1224 5.33916 18.9182 8.46571 17.5965 10.9001C16.5834 12.763 12.5447 15.8379 10.8549 17.074C10.6025 17.2565 10.308 17.3529 9.99947 17.3529ZM6.61638 4.26829C5.95729 4.26829 5.30871 4.45423 4.73376 4.80545C2.89322 5.93486 2.26217 8.44849 3.33144 10.4112C4.271 12.1397 8.49899 15.3145 9.77159 16.2442C9.90481 16.3406 10.0906 16.3406 10.2238 16.2442C11.4964 15.311 15.7244 12.1363 16.664 10.4112C17.7333 8.44849 17.1022 5.93142 15.2617 4.80545C14.6902 4.45423 14.0417 4.26829 13.3826 4.26829C12.2292 4.26829 11.1494 4.81922 10.4202 5.77647L9.99947 6.33429L9.57877 5.77647C8.84957 4.81922 7.77329 4.26829 6.61638 4.26829Z" fill="#333333" />
</svg>
