<svg width="24" height="25" viewBox="0 0 24 25" fill="none" xmlns="http://www.w3.org/2000/svg">
    <path d="M11.8939 1.87415C11.9341 1.83155 11.9746 1.82122 12 1.82122C12.0254 1.82122 12.0659 1.83155 12.1061 1.87415L22.2614 12.6518C22.6115 13.0234 22.8142 13.5328 22.8142 14.0764V22.451C22.8142 22.9685 22.4276 23.3038 22.0598 23.3038H16.2371C15.88 23.3038 15.504 22.9798 15.504 22.4735V17.4082C15.504 15.4326 13.9815 13.7418 12 13.7418C10.0185 13.7418 8.49602 15.4326 8.49602 17.4082V22.4735C8.49602 22.9798 8.12001 23.3038 7.76288 23.3038H1.94015C1.57241 23.3038 1.1858 22.9685 1.1858 22.451V14.0764C1.1858 13.5328 1.38848 13.0234 1.73861 12.6518L11.8939 1.87415Z" fill="#FAFAFA" stroke="#FAFAFA" stroke-width="1.70493" />
</svg>
