<svg width="101" height="36" viewBox="0 0 101 36" fill="none" xmlns="http://www.w3.org/2000/svg">
    <path d="M7.77125 5.89293C5.82602 6.70718 3.68756 9.00753 3.01216 11.895C2.15683 15.5535 5.71628 17.1005 6.00823 16.5933C6.35185 15.9972 5.37041 15.7957 5.16839 13.8975C4.9073 11.4458 6.04708 8.70631 7.48154 7.5043C7.74818 7.28098 7.73549 7.59181 7.73549 8.16674C7.73549 9.19485 7.67869 18.4243 7.67869 20.3505C7.67869 22.9568 7.57103 23.7799 7.37769 24.5932C7.18179 25.4173 6.86685 25.9742 7.10549 26.1887C7.37212 26.4287 8.51053 25.8579 9.16957 24.9381C9.95985 23.8349 10.2365 22.5101 10.2862 21.0713C10.3461 19.337 10.3436 16.5848 10.3461 15.0151C10.3485 13.5753 10.3704 9.35952 10.3209 6.82512C10.3088 6.20348 8.58476 5.55129 7.77116 5.89218L7.77125 5.89293ZM76.8464 18.0906C76.7837 19.4456 76.4838 20.5047 76.1115 21.2517C75.3909 22.698 73.8955 23.147 73.2606 21.068C72.9145 19.9347 72.8984 18.0421 73.1471 16.4606C73.4004 14.8495 74.1074 13.6328 75.2783 13.7426C76.4331 13.851 76.9736 15.3391 76.8464 18.0905V18.0906ZM57.3782 26.4973C57.3625 28.7487 57.0082 30.7227 56.2483 31.296C55.1706 32.109 53.7221 31.4992 54.022 29.8563C54.2874 28.4025 55.5425 26.9178 57.3812 25.1038C57.3812 25.1038 57.3851 25.5175 57.3782 26.4973H57.3782ZM57.0838 18.0775C57.0179 19.3116 56.698 20.5514 56.3489 21.2519C55.6284 22.6981 54.1222 23.1503 53.498 21.0682C53.0712 19.6456 53.1734 17.8045 53.3846 16.6444C53.6586 15.1392 54.3228 13.7429 55.5157 13.7429C56.6754 13.7429 57.2473 15.0153 57.0838 18.0776V18.0775ZM45.8058 18.0586C45.7351 19.3657 45.4802 20.4583 45.071 21.2519C44.3306 22.6882 42.8659 23.1437 42.22 21.0682C41.7543 19.5716 41.9128 17.531 42.1066 16.4286C42.394 14.7928 43.1139 13.633 44.2377 13.7429C45.392 13.8557 45.9532 15.3392 45.8058 18.0587V18.0586ZM97.4903 19.5853C97.2081 19.5853 97.0793 19.8762 96.9728 20.3658C96.6033 22.0682 96.2149 22.4526 95.714 22.4526C95.1544 22.4526 94.6516 21.6096 94.5224 19.9222C94.4208 18.5953 94.4371 16.1525 94.567 13.7226C94.5936 13.2233 94.4558 12.7293 93.1167 12.2429C92.5405 12.0336 91.7029 11.7255 91.2859 12.7322C90.1076 15.5763 89.6465 17.8343 89.5381 18.7515C89.5324 18.799 89.4742 18.8087 89.464 18.6978C89.3949 17.9631 89.2404 16.6281 89.2212 13.8232C89.2175 13.2759 89.1015 12.8101 88.4975 12.4287C88.1055 12.1813 86.9154 11.7436 86.4868 12.2643C86.1155 12.6901 85.6855 13.8362 85.2387 15.1946C84.8756 16.2987 84.6227 17.0456 84.6227 17.0456C84.6227 17.0456 84.6275 14.0665 84.6318 12.9365C84.6337 12.5102 84.3413 12.3681 84.2532 12.3424C83.8563 12.2272 83.0743 12.0347 82.7424 12.0347C82.3329 12.0347 82.2326 12.2637 82.2326 12.5972C82.2326 12.6409 82.168 16.5195 82.168 19.2316C82.168 19.3494 82.168 19.4779 82.1692 19.6145C81.9427 20.861 81.2081 22.5531 80.4092 22.5531C79.6093 22.5531 79.232 21.8457 79.232 18.6124C79.232 16.7262 79.2886 15.9061 79.3164 14.5418C79.3326 13.7561 79.3638 13.1527 79.362 13.0157C79.3562 12.5958 78.63 12.3842 78.2922 12.306C77.9527 12.2271 77.6577 12.1965 77.4274 12.2096C77.1014 12.228 76.8707 12.4419 76.8707 12.7361C76.8707 12.8938 76.8725 13.1938 76.8725 13.1938C76.4526 12.5339 75.7772 12.0746 75.3278 11.9415C74.1175 11.5821 72.8545 11.9006 71.9019 13.2336C71.1448 14.2928 70.6884 15.4924 70.5087 17.2159C70.3774 18.4759 70.4203 19.7536 70.6537 20.8342C70.3717 22.0535 69.8481 22.5531 69.2748 22.5531C68.4424 22.5531 67.839 21.1946 67.9091 18.845C67.9553 17.2996 68.2645 16.2151 68.6026 14.6461C68.7467 13.9773 68.6296 13.6271 68.3359 13.2915C68.0665 12.9837 67.4925 12.8265 66.6674 13.0199C66.0797 13.1578 65.2394 13.3061 64.4705 13.42C64.4705 13.42 64.5169 13.2349 64.555 12.9086C64.755 11.1972 62.8953 11.3361 62.302 11.8827C61.9478 12.209 61.7068 12.5939 61.6153 13.2859C61.4702 14.3841 62.3658 14.9021 62.3658 14.9021C62.072 16.2473 61.3516 18.0045 60.6079 19.275C60.2096 19.9557 59.9049 20.4601 59.5115 20.9963C59.5101 20.7966 59.509 20.597 59.5083 20.3983C59.4993 17.5702 59.5369 15.3444 59.5535 14.5421C59.5697 13.7564 59.6012 13.1689 59.5994 13.032C59.595 12.7249 59.4156 12.6089 59.0426 12.462C58.7127 12.3321 58.3227 12.2422 57.9182 12.2109C57.4075 12.1711 57.0999 12.4419 57.1079 12.7621C57.1095 12.8226 57.1095 13.1939 57.1095 13.1939C56.6895 12.534 56.0142 12.0748 55.5648 11.9417C54.3545 11.5824 53.0915 11.9009 52.1389 13.2337C51.3819 14.2929 50.8862 15.7792 50.7457 17.2029C50.6149 18.5298 50.639 19.6574 50.8174 20.6073C50.625 21.5585 50.0716 22.5532 49.446 22.5532C48.6461 22.5532 48.191 21.8458 48.191 18.6125C48.191 16.7263 48.2477 15.9062 48.2755 14.5421C48.2916 13.7564 48.3228 13.1528 48.3211 13.016C48.3152 12.5961 47.5891 12.3845 47.2512 12.3061C46.8977 12.2243 46.5925 12.1943 46.3581 12.2115C46.0489 12.2346 45.8315 12.5115 45.8315 12.718V13.1939C45.4116 12.534 44.7362 12.0748 44.2868 11.9417C43.0765 11.5824 41.8206 11.906 40.8609 13.2337C40.2351 14.0995 39.7285 15.0593 39.4677 17.184C39.3924 17.798 39.3591 18.373 39.3634 18.9104C39.1139 20.4365 38.0117 22.1955 37.1101 22.1955C36.5825 22.1955 36.0801 21.1722 36.0801 18.9913C36.0801 16.0863 36.2599 11.9501 36.2903 11.5515C36.2903 11.5515 37.4294 11.5321 37.65 11.5296C38.2182 11.5233 38.7329 11.5368 39.4897 11.4981C39.8693 11.4787 40.235 10.1164 39.8432 9.9478C39.6656 9.8715 38.4107 9.80463 37.9132 9.79407C37.4948 9.78459 36.3303 9.69841 36.3303 9.69841C36.3303 9.69841 36.4347 6.95301 36.459 6.663C36.4797 6.42128 36.1669 6.29683 35.9876 6.22131C35.5515 6.03687 35.1614 5.94856 34.6989 5.85322C34.06 5.72142 33.7701 5.85034 33.7135 6.3896C33.6282 7.20801 33.5841 9.60514 33.5841 9.60514C33.1152 9.60514 31.5136 9.51349 31.0446 9.51349C30.6088 9.51349 30.1385 11.3875 30.7409 11.4106C31.4341 11.4374 32.642 11.4606 33.4428 11.4848C33.4428 11.4848 33.4072 15.6891 33.4072 16.9871C33.4072 17.1252 33.4084 17.2582 33.4086 17.3872C32.9679 19.6844 31.4155 20.9252 31.4155 20.9252C31.7489 19.4055 31.0679 18.2643 29.8413 17.2983C29.3894 16.9423 28.4972 16.2683 27.499 15.5298C27.499 15.5298 28.0771 14.96 28.5898 13.8137C28.9531 13.0016 28.9688 12.0724 28.0771 11.8675C26.6038 11.5286 25.389 12.6107 25.0267 13.7658C24.7459 14.6607 24.8957 15.3247 25.4456 16.0145C25.4858 16.0649 25.5293 16.1164 25.5743 16.1682C25.2417 16.8093 24.7848 17.6723 24.3978 18.3416C23.3238 20.1998 22.5125 21.6696 21.8993 21.6696C21.4091 21.6696 21.4157 20.1773 21.4157 18.7802C21.4157 17.5758 21.5046 15.7649 21.5757 13.8901C21.5992 13.2701 21.2892 12.9169 20.7694 12.5969C20.4536 12.4026 19.7797 12.0204 19.3894 12.0204C18.8051 12.0204 17.1196 12.0999 15.5269 16.7069C15.3262 17.2875 14.9319 18.3456 14.9319 18.3456L14.9658 12.8055C14.9658 12.6756 14.8967 12.5501 14.7383 12.4641C14.4699 12.3184 13.7531 12.0204 13.1157 12.0204C12.812 12.0204 12.6605 12.1616 12.6605 12.4432L12.6049 21.1106C12.6049 21.7692 12.622 22.5375 12.6871 22.8735C12.752 23.21 12.8571 23.4836 12.9873 23.6465C13.1172 23.809 13.2676 23.933 13.5155 23.9842C13.7462 24.0317 15.0095 24.1939 15.0752 23.7111C15.1538 23.1325 15.1569 22.5067 15.8202 20.1727C16.853 16.539 18.1995 14.7661 18.8324 14.1365C18.9431 14.0264 19.0695 14.0198 19.0634 14.2C19.0364 14.9966 18.9414 16.9873 18.8774 18.6785C18.7059 23.2043 19.5293 24.0432 20.7058 24.0432C21.606 24.0432 22.8749 23.1488 24.2351 20.8848C25.0831 19.4739 25.9064 18.0904 26.498 17.0933C26.9102 17.475 27.3729 17.8857 27.8352 18.3245C28.9095 19.3442 29.2623 20.3131 29.0282 21.2322C28.8492 21.9349 28.1751 22.6591 26.9753 21.9552C26.6257 21.7499 26.4764 21.5912 26.1248 21.3597C25.9359 21.2354 25.6474 21.1982 25.4745 21.3285C25.0253 21.6671 24.7684 22.0979 24.6217 22.6313C24.479 23.1502 24.9988 23.4246 25.5375 23.6645C26.0015 23.871 26.9985 24.0582 27.6344 24.0795C30.112 24.1624 32.0968 22.8832 33.4784 19.5837C33.7257 22.4333 34.7783 24.0457 36.6071 24.0457C37.8297 24.0457 39.0556 22.4654 39.5916 20.9107C39.7455 21.5444 39.9733 22.0955 40.2675 22.5615C41.6767 24.7942 44.4104 24.3137 45.7836 22.4178C46.2081 21.8319 46.2728 21.6214 46.2728 21.6214C46.473 23.4116 47.9147 24.0371 48.7401 24.0371C49.6646 24.0371 50.6191 23.6001 51.2881 22.094C51.3665 22.2574 51.4521 22.4135 51.5455 22.5615C52.9547 24.7942 55.6884 24.3136 57.0616 22.4177C57.1263 22.3288 57.1825 22.2481 57.2316 22.1757L57.2719 23.3516C57.2719 23.3516 56.4885 24.0702 56.0077 24.5111C53.8913 26.4528 52.282 27.9259 52.1636 29.6414C52.0117 31.8289 53.7857 32.6418 55.1279 32.7484C56.5532 32.8615 57.7737 32.0741 58.524 30.9722C59.1839 30.0023 59.6158 27.9149 59.5841 25.8532C59.5715 25.0276 59.5507 23.9779 59.5344 22.8527C60.2782 21.9888 61.1163 20.897 61.888 19.619C62.729 18.2263 63.6302 16.356 64.0917 14.9004C64.0917 14.9004 64.8748 14.9072 65.7105 14.8524C65.9778 14.835 66.0545 14.8895 66.0051 15.0855C65.9454 15.3223 64.9493 19.1644 65.8584 21.7239C66.4807 23.4761 67.8835 24.0398 68.7152 24.0398C69.6887 24.0398 70.6201 23.3046 71.1192 22.2128C71.1793 22.3345 71.2422 22.4523 71.3108 22.561C72.72 24.7937 75.4441 24.3103 76.8269 22.4172C77.139 21.9901 77.3161 21.6209 77.3161 21.6209C77.6128 23.4737 79.0536 24.046 79.8789 24.046C80.7386 24.046 81.5544 23.6936 82.2164 22.1274C82.2441 22.817 82.2876 23.3809 82.3564 23.5586C82.3983 23.6674 82.6426 23.8039 82.8203 23.8698C83.6067 24.1614 84.4088 24.0235 84.7055 23.9635C84.9111 23.9219 85.0714 23.757 85.0933 23.3311C85.1509 22.213 85.1155 20.3343 85.4545 18.938C86.0235 16.5948 86.5543 15.6859 86.8061 15.2359C86.947 14.9838 87.106 14.9422 87.1118 15.209C87.1237 15.7489 87.1505 17.3344 87.3709 19.4645C87.5328 21.0312 87.7491 21.9572 87.9153 22.2502C88.3896 23.0883 88.9754 23.128 89.4524 23.128C89.7559 23.128 90.3905 23.0441 90.3337 22.5108C90.306 22.2508 90.3545 20.6443 90.9155 18.3358C91.2819 16.8282 91.8926 15.4661 92.1129 14.9681C92.1942 14.7844 92.2319 14.9292 92.2306 14.9574C92.1842 15.9956 92.0801 19.3914 92.5031 21.2487C93.0764 23.7647 94.7349 24.0462 95.3129 24.0462C96.5468 24.0462 97.5558 23.1077 97.8958 20.6381C97.9777 20.0438 97.8564 19.5849 97.4931 19.5849" fill="#262626" />
</svg>
