<svg width="24" height="25" viewBox="0 0 24 25" fill="none" xmlns="http://www.w3.org/2000/svg">
<path d="M12 0.916626C5.59276 0.916626 0.333344 5.86212 0.333344 12C0.333344 15.1449 1.75434 17.955 3.95867 19.9638L3.91651 22.0157C3.88404 23.6537 5.74103 24.7478 7.15789 23.9253L9.24513 22.7142C10.1311 22.9214 11.0406 23.0833 12 23.0833C18.4073 23.0833 23.6667 18.1378 23.6667 12C23.6667 5.86212 18.4073 0.916626 12 0.916626ZM12 2.66663C17.5126 2.66663 21.9167 6.86196 21.9167 12C21.9167 17.138 17.5126 21.3333 12 21.3333C11.0587 21.3333 10.1496 21.202 9.27931 20.9687C9.16809 20.9388 9.05206 20.9312 8.93788 20.9463C8.8237 20.9613 8.71362 20.9988 8.61394 21.0564L6.27947 22.4122C5.96629 22.5943 5.65933 22.4135 5.66651 22.0511L5.7155 19.6403C5.71802 19.5097 5.69129 19.3802 5.63728 19.2614C5.58326 19.1425 5.50332 19.0372 5.40333 18.9532C3.36057 17.2353 2.08334 14.7649 2.08334 12C2.08334 6.86196 6.48743 2.66663 12 2.66663ZM17.8766 8.56262C17.7283 8.53564 17.5696 8.56444 17.4357 8.65719L13.5768 11.33L11.5625 9.55839L11.4212 9.4342L11.3438 9.3704C10.7406 8.9154 9.88242 9.03612 9.42742 9.63928L5.76905 14.4905L5.75766 14.5042C5.60891 14.7019 5.59582 14.9805 5.74399 15.1946C5.92949 15.4618 6.29655 15.5282 6.5643 15.3427L10.4232 12.6699L12.4375 14.4427L12.5788 14.5669L12.6563 14.6295C13.2594 15.0845 14.1176 14.9649 14.5726 14.3618L18.231 9.51054L18.2424 9.49573C18.3911 9.29798 18.4042 9.02052 18.256 8.80644C18.1633 8.67285 18.025 8.5896 17.8766 8.56262Z" fill="#FAFAFA"/>
</svg>
