<svg width="28" height="28" viewBox="0 0 28 28" fill="none" xmlns="http://www.w3.org/2000/svg">
    <path fill-rule="evenodd" clip-rule="evenodd" d="M9.81485 3.85L12.919 7.73013L12.7631 7.81672H17.92L14.7466 3.85H9.81485ZM24.1499 7.81672H20.3465L20.5024 7.73014L17.3983 3.85H20.4166C22.4785 3.85 24.1499 5.52147 24.1499 7.58333V7.81672ZM10.3366 7.81672L7.18043 3.87148C5.30802 4.07237 3.84994 5.65758 3.84994 7.58333V7.81672H10.3366ZM3.84994 20.4167V9.91672H24.1499V20.4167C24.1499 22.4785 22.4785 24.15 20.4166 24.15H7.58327C5.52141 24.15 3.84994 22.4785 3.84994 20.4167ZM7.58327 1.75C4.36161 1.75 1.74994 4.36167 1.74994 7.58333V20.4167C1.74994 23.6383 4.36161 26.25 7.58327 26.25H20.4166C23.6383 26.25 26.2499 23.6383 26.2499 20.4167V7.58333C26.2499 4.36167 23.6383 1.75 20.4166 1.75H7.58327ZM17.7916 16.8385C18.1804 16.614 18.1805 16.0527 17.7916 15.8282L11.6666 12.2919C11.2777 12.0674 10.7916 12.348 10.7916 12.7971L10.7916 19.8696C10.7916 20.3187 11.2777 20.5993 11.6666 20.3748L17.7916 16.8385Z" fill="#FAFAFA" />
</svg>
