<svg width="26" height="26" viewBox="0 0 26 26" fill="none" xmlns="http://www.w3.org/2000/svg">
    <path fill-rule="evenodd" clip-rule="evenodd" d="M24.5251 24.4382C24.7481 24.2174 24.7487 23.8573 24.5265 23.6357L19.5061 18.6306C21.2158 16.7285 22.2632 14.2282 22.2632 11.4738C22.2632 5.55315 17.4453 0.75 11.5066 0.75C5.56782 0.75 0.75 5.55315 0.75 11.4738C0.75 17.3945 5.56782 22.1977 11.5066 22.1977C14.2806 22.1977 16.7943 21.1422 18.7022 19.4264L23.7278 24.4368C23.948 24.6563 24.3041 24.6569 24.5251 24.4382ZM1.88227 11.4738C1.88227 6.1853 6.20189 1.87883 11.5066 1.87883C16.8113 1.87883 21.1309 6.1853 21.1309 11.4738C21.1309 16.7624 16.8113 21.0689 11.5066 21.0689C6.20189 21.0689 1.88227 16.7624 1.88227 11.4738Z" fill="#FAFAFA" stroke="#FAFAFA" stroke-width="0.852466" stroke-linecap="round" stroke-linejoin="round" />
</svg>