<svg width="20" height="20" viewBox="0 0 20 20" fill="none" xmlns="http://www.w3.org/2000/svg">
    <path fill-rule="evenodd" clip-rule="evenodd" d="M18.3974 3.30308C18.2212 2.99349 17.8897 2.81439 17.5415 2.81439L2.46486 2.82535C2.04498 2.82538 1.68097 3.08469 1.53545 3.47108L1.53531 3.47144C1.43055 3.7508 1.45404 4.05557 1.59788 4.30729L1.59989 4.3108L1.602 4.31426C1.65613 4.40284 1.72487 4.48628 1.80814 4.55975L7.54683 9.50851L8.94558 16.9385L8.94567 16.9389C9.0221 17.3506 9.34077 17.6572 9.75385 17.7226C10.1627 17.788 10.5652 17.5955 10.7753 17.2403L10.7756 17.2397L18.3921 4.29237L18.223 3.99848C18.223 3.99836 18.2231 3.99824 18.2231 3.99812L18.3923 4.29203C18.5737 3.98436 18.5748 3.60841 18.3974 3.30308ZM17.7115 3.10961L17.5415 2.81439L17.7114 3.10958C17.7114 3.10959 17.7115 3.1096 17.7115 3.10961ZM8.40919 8.06682L4.23169 4.46067H14.7285L8.40919 8.06682ZM10.2423 14.8968L9.224 9.4866L15.5557 5.87561L10.2423 14.8968Z" fill="#333333" />
</svg>
