<svg width="28" height="28" viewBox="0 0 28 28" fill="none" xmlns="http://www.w3.org/2000/svg">
    <path fill-rule="evenodd" clip-rule="evenodd" d="M14.2697 3.79965C12.9048 3.79965 11.7985 4.90268 11.7985 6.26332V7.60506H9.74255V6.26332C9.74255 3.77068 11.7694 1.75 14.2697 1.75C16.7699 1.75 18.7967 3.77068 18.7967 6.26333V7.60506H16.7408V6.26333C16.7408 4.90268 15.6345 3.79965 14.2697 3.79965ZM20.3513 9.65474H7.64872C6.92495 9.65474 6.32593 10.2158 6.28079 10.9359L5.74033 19.557C5.56772 22.3103 7.76102 24.6378 10.5281 24.6378H17.4719C20.239 24.6378 22.4323 22.3103 22.2596 19.557L21.7192 10.9359C21.674 10.2158 21.075 9.65474 20.3513 9.65474ZM7.64872 7.60509C5.83931 7.60509 4.34175 9.00769 4.22888 10.8081L3.68842 19.4291C3.44184 23.3624 6.57513 26.6875 10.5281 26.6875H17.4719C21.4248 26.6875 24.5581 23.3624 24.3116 19.4291L23.7711 10.8081C23.6582 9.00769 22.1607 7.60509 20.3513 7.60509H7.64872ZM16.7405 12.1669C16.7405 13.5275 15.6341 14.6306 14.2693 14.6306C12.9045 14.6306 11.7981 13.5275 11.7981 12.1669V11.8986C11.7981 11.3326 11.3379 10.8737 10.7701 10.8737C10.2024 10.8737 9.74219 11.3326 9.74219 11.8986V12.1669C9.74219 14.6595 11.769 16.6802 14.2693 16.6802C16.7695 16.6802 18.7964 14.6595 18.7964 12.1669V11.8986C18.7964 11.3326 18.3361 10.8737 17.7684 10.8737C17.2007 10.8737 16.7405 11.3326 16.7405 11.8986V12.1669Z" fill="#FAFAFA" />
</svg>
