<svg width="13" height="4" viewBox="0 0 13 4" fill="none" xmlns="http://www.w3.org/2000/svg">
    <path fill-rule="evenodd" clip-rule="evenodd" d="M3 1.90002C3 2.72845 2.32843 3.40002 1.5 3.40002C0.671573 3.40002 0 2.72845 0 1.90002C0 1.0716 0.671573 0.400024 1.5 0.400024C2.32843 0.400024 3 1.0716 3 1.90002ZM8 1.90002C8 2.72845 7.32843 3.40002 6.5 3.40002C5.67157 3.40002 5 2.72845 5 1.90002C5 1.0716 5.67157 0.400024 6.5 0.400024C7.32843 0.400024 8 1.0716 8 1.90002ZM11.5 3.40002C12.3284 3.40002 13 2.72845 13 1.90002C13 1.0716 12.3284 0.400024 11.5 0.400024C10.6716 0.400024 10 1.0716 10 1.90002C10 2.72845 10.6716 3.40002 11.5 3.40002Z" fill="#4F4F4F" />
</svg>
